<?xml version="1.0" standalone="no"?><!DOCTYPE svg PUBLIC "-//W3C//DTD SVG 1.1//EN" "http://www.w3.org/Graphics/SVG/1.1/DTD/svg11.dtd"><svg t="1634807430555" class="icon" viewBox="0 0 1024 1024" version="1.1" xmlns="http://www.w3.org/2000/svg" p-id="4663" xmlns:xlink="http://www.w3.org/1999/xlink" width="200" height="200"><defs><style type="text/css"></style></defs><path d="M927.1 268.6H208.7c-24.7 0-44.9 20.2-44.9 44.9v449c0 24.7 20.2 44.9 44.9 44.9h718.4c24.7 0 44.9-20.2 44.9-44.9v-449c0-24.6-20.2-44.9-44.9-44.9z" fill="#4DBBF7" p-id="4664"></path><path d="M859.8 201.3v493.9H96.5V201.3h763.3m0-67.3H96.5c-37 0-67.3 30.3-67.3 67.3v493.9c0 37 30.3 67.3 67.3 67.3h763.3c37 0 67.3-30.3 67.3-67.3V201.3c0-37-30.3-67.3-67.3-67.3z" fill="" p-id="4665"></path><path d="M175 297.4h67.3v67.3H175zM309.7 297.4H377v67.3h-67.3zM444.4 297.4h67.3v67.3h-67.3zM579.1 297.4h67.3v67.3h-67.3zM713.8 297.4h67.3v67.3h-67.3zM242.4 409.6h67.3v67.3h-67.3zM377.1 409.6h67.3v67.3h-67.3zM511.8 409.6h67.3v67.3h-67.3zM646.5 409.6h67.3v67.3h-67.3zM590.4 557.4H186.3v67.4h404.1v-67.4zM792.4 557.4H657.7v67.4h134.7v-67.4z" fill="" p-id="4666"></path><path d="M814.9 490.1h-67.4v134.7h67.4V490.1z" fill="" p-id="4667"></path></svg>