<?xml version="1.0" standalone="no"?><!DOCTYPE svg PUBLIC "-//W3C//DTD SVG 1.1//EN" "http://www.w3.org/Graphics/SVG/1.1/DTD/svg11.dtd"><svg t="1634908673362" class="icon" viewBox="0 0 1024 1024" version="1.1" xmlns="http://www.w3.org/2000/svg" p-id="4172" xmlns:xlink="http://www.w3.org/1999/xlink" width="200" height="200"><defs><style type="text/css"></style></defs><path d="M889.6 267.2c49.6 73.6 80 163.2 80 260.8 0 256-208 464-464 464s-464-208-464-464 208-464 464-464c72 0 139.2 16 200 44.8" fill="#FFF100" p-id="4173"></path><path d="M505.6 1024C232 1024 9.6 801.6 9.6 528s222.4-496 496-496c75.2 0 147.2 16 214.4 48 16 8 22.4 27.2 14.4 43.2-8 16-27.2 22.4-43.2 14.4C633.6 110.4 571.2 96 505.6 96c-238.4 0-432 193.6-432 432s193.6 432 432 432 432-193.6 432-432c0-86.4-25.6-171.2-73.6-241.6-9.6-14.4-6.4-35.2 8-44.8s35.2-6.4 44.8 8c56 81.6 84.8 179.2 84.8 278.4 0 273.6-222.4 496-496 496z" fill="" p-id="4174"></path><path d="M339.2 369.6H672v316.8H339.2z" fill="" p-id="4175"></path><path d="M680 694.4H331.2V361.6h348.8v332.8z m-332.8-16h316.8V377.6H347.2v300.8z" fill="" p-id="4176"></path></svg>